HIERARCHY
ROOT Hips
{
	OFFSET 0.00000 0.00000 0.00000
	CHANNELS 6 Xposition Yposition Zposition Zrotation Yrotation Xrotation 
	JOINT LHipJoint
	{
		OFFSET 0 0 0
		CHANNELS 3 Zrotation Yrotation Xrotation
		JOINT LeftUpLeg
		{
			OFFSET 1.09156 -1.61406 0.76500
			CHANNELS 3 Zrotation Yrotation Xrotation
			JOINT LeftLeg
			{
				OFFSET 2.33750 -6.42225 0.00000
				CHANNELS 3 Zrotation Yrotation Xrotation
				JOINT LeftFoot
				{
					OFFSET 2.49247 -6.84800 0.00000
					CHANNELS 3 Zrotation Yrotation Xrotation
					JOINT LeftToeBase
					{
						OFFSET 0.15312 -0.42069 1.45461
						CHANNELS 3 Zrotation Yrotation Xrotation
						End Site
						{
							OFFSET 0.00000 -0.00000 0.77046
						}
					}
				}
			}
		}
	}
	JOINT RHipJoint
	{
		OFFSET 0 0 0
		CHANNELS 3 Zrotation Yrotation Xrotation
		JOINT RightUpLeg
		{
			OFFSET -0.99883 -1.61406 0.76500
			CHANNELS 3 Zrotation Yrotation Xrotation
			JOINT RightLeg
			{
				OFFSET -2.36877 -6.50815 0.00000
				CHANNELS 3 Zrotation Yrotation Xrotation
				JOINT RightFoot
				{
					OFFSET -2.53452 -6.96353 0.00000
					CHANNELS 3 Zrotation Yrotation Xrotation
					JOINT RightToeBase
					{
						OFFSET -0.13156 -0.36145 1.63237
						CHANNELS 3 Zrotation Yrotation Xrotation
						End Site
						{
							OFFSET -0.00000 -0.00000 0.84979
						}
					}
				}
			}
		}
	}
	JOINT LowerBack
	{
		OFFSET 0 0 0
		CHANNELS 3 Zrotation Yrotation Xrotation
		JOINT Spine
		{
			OFFSET -0.02431 1.98242 -0.13616
			CHANNELS 3 Zrotation Yrotation Xrotation
			JOINT Spine1
			{
				OFFSET 0.03629 1.98974 -0.02954
				CHANNELS 3 Zrotation Yrotation Xrotation
				JOINT Neck
				{
					OFFSET 0 0 0
					CHANNELS 3 Zrotation Yrotation Xrotation
					JOINT Neck1
					{
						OFFSET 0.09349 1.40783 0.22333
						CHANNELS 3 Zrotation Yrotation Xrotation
						JOINT Head
						{
							OFFSET -0.04273 1.44500 -0.06495
							CHANNELS 3 Zrotation Yrotation Xrotation
							End Site
							{
								OFFSET -0.02251 1.44600 -0.04544
							}
						}
					}
				}
				JOINT LeftShoulder
				{
					OFFSET 0 0 0
					CHANNELS 3 Zrotation Yrotation Xrotation
					JOINT LeftArm
					{
						OFFSET 3.49137 0.85126 -0.29740
						CHANNELS 3 Zrotation Yrotation Xrotation
						JOINT LeftForeArm
						{
							OFFSET 5.06035 -0.00000 0.00000
							CHANNELS 3 Zrotation Yrotation Xrotation
							JOINT LeftHand
							{
								OFFSET 3.14780 -0.00000 0.00000
								CHANNELS 3 Zrotation Yrotation Xrotation
								JOINT LeftFingerBase
								{
									OFFSET 0 0 0
									CHANNELS 3 Zrotation Yrotation Xrotation
									JOINT LeftHandIndex1
									{
										OFFSET 0.60675 -0.00000 0.00000
										CHANNELS 3 Zrotation Yrotation Xrotation
										End Site
										{
											OFFSET 0.48918 -0.00000 0.00000
										}
									}
								}
								JOINT LThumb
								{
									OFFSET 0 0 0
									CHANNELS 3 Zrotation Yrotation Xrotation
									End Site
									{
										OFFSET 0.49664 -0.00000 0.49664
									}
								}
							}
						}
					}
				}
				JOINT RightShoulder
				{
					OFFSET 0 0 0
					CHANNELS 3 Zrotation Yrotation Xrotation
					JOINT RightArm
					{
						OFFSET -3.28101 0.69707 0.00747
						CHANNELS 3 Zrotation Yrotation Xrotation
						JOINT RightForeArm
						{
							OFFSET -5.12273 -0.00000 -0.00000
							CHANNELS 3 Zrotation Yrotation Xrotation
							JOINT RightHand
							{
								OFFSET -3.42200 -0.00000 0.00000
								CHANNELS 3 Zrotation Yrotation Xrotation
								JOINT RightFingerBase
								{
									OFFSET 0 0 0
									CHANNELS 3 Zrotation Yrotation Xrotation
									JOINT RightHandIndex1
									{
										OFFSET -0.70460 -0.00000 0.00000
										CHANNELS 3 Zrotation Yrotation Xrotation
										End Site
										{
											OFFSET -0.56807 -0.00000 0.00000
										}
									}
								}
								JOINT RThumb
								{
									OFFSET 0 0 0
									CHANNELS 3 Zrotation Yrotation Xrotation
									End Site
									{
										OFFSET -0.57674 -0.00000 0.57674
									}
								}
							}
						}
					}
				}
			}
		}
	}
}
MOTION
Frames: 6
Frame Time: .0083333
-30.8695 15.6198 -3.9897 0 0 0 0 0 0 -21 0 0 0 0 0 0 0 0 0 0 0 0 0 0 21 0 0 0 0 0 0 0 0 0 0 0 0 0 0 0 0 0 0 0 0 0 0 -16 0 0 21 0 0 11 0 0 0 -8 0 0 0 0 0 0 0 0 0 0 0 0 0 0 0 0 0 0 0 0 8 0 0 0 0 0 0 0 0 0 0 0 0 0 0 0 0 0
-30.8695 15.6198 -3.9897 92.5147 86.6102 97.4277 0.0000 0.0000 0.0000 -18.0115 -11.3725 -8.5338 3.0546 10.7830 31.5514 2.6819 0.5897 -31.2416 0.9069 6.0685 16.9833 0.0000 0.0000 0.0000 8.9093 8.1567 -8.7244 -2.6214 -10.0553 29.1561 -0.6585 -12.7812 -24.7765 -1.0961 6.6528 -18.6908 -5.8640 -0.8672 -3.7898 -1.4797 -0.8923 -1.6977 1.7264 -0.4042 0.4433 2.8243 0.1116 -12.9574 0.6640 0.2241 33.0191 -0.1111 0.9226 13.2399 -0.0000 0.0000 0.0000 -89.3086 -5.8429 0.2892 5.6781 -9.7243 -0.4834 -0.0000 -0.0000 20.9559 17.6770 42.3972 12.1277 -7.1250 0.0000 -0.0000 -30.7260 71.6719 -20.0642 -0.0000 0.0000 0.0000 92.9915 3.4371 -28.7014 -5.1433 8.8260 -0.3972 0.0000 0.0000 45.5203 -32.3976 32.3216 -18.7411 7.1250 -0.0000 -0.0000 -0.2455 6.8655 -0.2731
-30.8632 15.6305 -3.9856 83.2836 86.6506 88.6138 0.0000 0.0000 0.0000 -17.9459 -11.3814 -8.8461 3.0442 10.7663 31.4957 2.7072 0.8708 -31.4830 0.9321 6.1500 17.2202 0.0000 0.0000 0.0000 8.7240 7.4440 -9.7045 -2.6313 -10.0728 29.2128 -0.8032 -11.4001 -24.6252 -1.0973 6.6564 -18.7013 -5.8368 -0.6959 -4.1925 -1.5073 -0.6326 -1.6961 1.6903 -0.2793 0.6506 2.8067 0.0966 -13.4253 0.7089 0.1582 33.1115 -0.0987 0.8942 13.3813 -0.0000 0.0000 0.0000 -89.2237 -6.0756 0.2683 5.6760 -9.7208 -0.4830 -0.0000 -0.0000 21.0486 17.5542 42.1925 11.9948 -7.1250 0.0000 -0.0000 -30.4718 71.4653 -19.7549 -0.0000 0.0000 0.0000 93.0679 3.6733 -28.6454 -5.1395 8.8196 -0.3966 0.0000 0.0000 45.3908 -32.3529 32.4236 -18.7600 7.1250 -0.0000 -0.0000 -0.1984 6.9603 -0.2210
-30.8548 15.6160 -3.9863 82.3831 86.6862 87.2609 0.0000 0.0000 0.0000 -18.0832 -11.5723 -8.1580 3.0439 10.7658 31.4941 2.7300 1.2431 -31.7432 0.9440 6.1879 17.3307 0.0000 0.0000 0.0000 8.8718 7.8302 -8.9674 -2.6230 -10.0582 29.1653 -0.7686 -11.7732 -24.6927 -1.0967 6.6547 -18.6962 -5.8257 -0.7108 -3.8130 -1.4917 -0.6817 -1.6196 1.7012 -0.3034 0.5209 2.7690 0.1340 -13.0144 0.7863 0.2214 32.9677 -0.0546 0.9270 13.2304 0.0000 -0.0000 0.0000 -89.2383 -5.8341 -0.0688 5.7272 -9.8063 -0.4917 -0.0000 -0.0000 21.2371 17.3964 42.0806 11.8583 -7.1250 0.0000 -0.0000 -30.4405 71.3210 -19.6398 0.0000 -0.0000 0.0000 93.0861 3.3756 -27.4475 -5.1996 8.9208 -0.4059 0.0000 0.0000 44.3307 -32.2013 32.3182 -18.6077 7.1250 -0.0000 -0.0000 -0.1381 6.8026 -0.1535
-30.8663 15.6302 -3.9917 85.7757 86.7708 91.0730 0.0000 0.0000 0.0000 -17.8530 -11.5443 -8.7922 3.0389 10.7578 31.4673 2.6797 1.0963 -31.4003 0.9069 6.0685 16.9832 0.0000 0.0000 0.0000 8.9409 8.3118 -9.2279 -2.6168 -10.0473 29.1299 -0.7319 -12.1336 -24.7378 -1.0573 6.5378 -18.3531 -5.7128 -0.8050 -4.0129 -1.4593 -0.7985 -1.6932 1.6645 -0.3612 0.5643 2.5750 0.1175 -12.8804 1.0467 0.1535 32.6818 0.0667 0.8975 13.0783 0.0000 0.0000 0.0000 -89.2793 -6.0205 -0.4997 5.7008 -9.7622 -0.4872 -0.0000 -0.0000 21.6620 17.5046 42.0196 11.9210 -7.1250 0.0000 -0.0000 -30.2000 71.3086 -19.4680 0.0000 0.0000 0.0000 93.0439 3.4718 -26.9376 -5.2126 8.9427 -0.4079 0.0000 0.0000 43.8573 -31.8781 32.5839 -18.5169 7.1250 -0.0000 -0.0000 0.0980 6.9872 0.1092
-30.8652 15.6308 -3.9876 89.2102 86.7731 94.4432 0.0000 0.0000 0.0000 -17.7730 -11.2456 -8.8915 3.0436 10.7652 31.4922 2.6673 0.7176 -31.1991 0.8944 6.0279 16.8653 0.0000 0.0000 0.0000 8.9869 8.1121 -9.1294 -2.6120 -10.0387 29.1023 -0.7637 -12.0020 -24.8720 -1.0292 6.4533 -18.1054 -5.8414 -0.8865 -3.9446 -1.4000 -0.9068 -1.6296 1.7926 -0.4175 0.6020 2.4650 0.1194 -12.6749 1.1568 0.1475 32.4200 0.1234 0.8877 12.9227 0.0000 0.0000 0.0000 -89.3299 -6.1611 -0.8908 5.6491 -9.6757 -0.4785 -0.0000 -0.0000 21.9985 17.6326 42.0559 12.0194 -7.1250 0.0000 -0.0000 -30.1205 71.3817 -19.4609 0.0000 0.0000 0.0000 92.9556 3.5114 -26.8334 -5.2006 8.9225 -0.4060 0.0000 0.0000 43.8747 -32.2489 32.3534 -18.6564 7.1250 -0.0000 -0.0000 -0.1566 6.8543 -0.1742
